# Blender v2.81 (sub 16) OBJ File: ''
# www.blender.org
mtllib plate.mtl
o Cube
v -5.555556 -0.555556 5.555556
v -5.555556 0.555556 5.555556
v -5.555556 -0.555556 -5.555556
v -5.555556 0.555556 -5.555556
v 5.555556 -0.555556 5.555556
v 5.555556 0.555556 5.555556
v 5.555556 -0.555556 -5.555556
v 5.555556 0.555556 -5.555556
vn -1.0000 0.0000 0.0000
vn 1.0000 0.0000 0.0000
vn 0.0000 0.0000 1.0000
vn 0.0000 0.0000 -1.0000
vn 0.0000 -1.0000 0.0000
vn 0.0000 1.0000 0.0000
usemtl Material
s off
f 1//1 2//1 4//1 3//1
f 7//2 8//2 6//2 5//2
f 1//3 5//3 6//3 2//3
f 4//4 8//4 7//4 3//4
f 1//5 3//5 7//5 5//5
f 6//6 8//6 4//6 2//6
